<svg width="24" height="24" viewBox="0 0 24 24" fill="none" xmlns="http://www.w3.org/2000/svg">
<path d="M13.11 7.66406L14.89 10.3361" stroke="#006CE4" stroke-width="2" stroke-linecap="round" stroke-linejoin="round"/>
<path d="M14.162 12.7881L10.838 14.2121" stroke="#006CE4" stroke-width="2" stroke-linecap="round" stroke-linejoin="round"/>
<path d="M19.9999 4L13.9399 5.515" stroke="#006CE4" stroke-width="2" stroke-linecap="round" stroke-linejoin="round"/>
<path d="M3 3V19C3 19.5304 3.21071 20.0391 3.58579 20.4142C3.96086 20.7893 4.46957 21 5 21H21" stroke="#006CE4" stroke-width="2" stroke-linecap="round" stroke-linejoin="round"/>
<path d="M12 8C13.1046 8 14 7.10457 14 6C14 4.89543 13.1046 4 12 4C10.8954 4 10 4.89543 10 6C10 7.10457 10.8954 8 12 8Z" stroke="#006CE4" stroke-width="2" stroke-linecap="round" stroke-linejoin="round"/>
<path d="M16 14C17.1046 14 18 13.1046 18 12C18 10.8954 17.1046 10 16 10C14.8954 10 14 10.8954 14 12C14 13.1046 14.8954 14 16 14Z" stroke="#006CE4" stroke-width="2" stroke-linecap="round" stroke-linejoin="round"/>
<path d="M9 17C10.1046 17 11 16.1046 11 15C11 13.8954 10.1046 13 9 13C7.89543 13 7 13.8954 7 15C7 16.1046 7.89543 17 9 17Z" stroke="#006CE4" stroke-width="2" stroke-linecap="round" stroke-linejoin="round"/>
</svg>
